<svg width="18" height="18" viewBox="0 0 25 26" fill="none" xmlns="http://www.w3.org/2000/svg">
<path d="M12.5 0.5C14.1576 0.5 15.7473 1.15848 16.9194 2.33058C18.0915 3.50268 18.75 5.0924 18.75 6.75C18.75 8.4076 18.0915 9.99732 16.9194 11.1694C15.7473 12.3415 14.1576 13 12.5 13C10.8424 13 9.25268 12.3415 8.08058 11.1694C6.90848 9.99732 6.25 8.4076 6.25 6.75C6.25 5.0924 6.90848 3.50268 8.08058 2.33058C9.25268 1.15848 10.8424 0.5 12.5 0.5ZM12.5 3.625C11.6712 3.625 10.8763 3.95424 10.2903 4.54029C9.70424 5.12634 9.375 5.9212 9.375 6.75C9.375 7.5788 9.70424 8.37366 10.2903 8.95971C10.8763 9.54576 11.6712 9.875 12.5 9.875C13.3288 9.875 14.1237 9.54576 14.7097 8.95971C15.2958 8.37366 15.625 7.5788 15.625 6.75C15.625 5.9212 15.2958 5.12634 14.7097 4.54029C14.1237 3.95424 13.3288 3.625 12.5 3.625ZM12.5 14.5625C16.6719 14.5625 25 16.6406 25 20.8125V25.5H0V20.8125C0 16.6406 8.32812 14.5625 12.5 14.5625ZM12.5 17.5312C7.85938 17.5312 2.96875 19.8125 2.96875 20.8125V22.5312H22.0312V20.8125C22.0312 19.8125 17.1406 17.5312 12.5 17.5312Z" fill="#817E7E"/>
</svg>
