<svg width="12" height="12" viewBox="0 0 12 12" fill="none" xmlns="http://www.w3.org/2000/svg">
<path d="M7.78989 11.0691L1.64213 6.38407C1.5073 6.28185 1.43167 6.14386 1.43167 6.00007C1.43167 5.85628 1.5073 5.71829 1.64213 5.61607L7.78855 0.931069C7.92331 0.828214 7.99883 0.689776 7.99883 0.545569C7.99883 0.401363 7.92331 0.262925 7.78855 0.160069C7.72272 0.109421 7.64403 0.0691688 7.55713 0.0416851C7.47024 0.0142014 7.37688 4.19617e-05 7.28257 4.19617e-05C7.18826 4.19617e-05 7.09491 0.0142014 7.00801 0.0416851C6.92111 0.0691688 6.84243 0.109421 6.77659 0.160069L0.630169 4.84407C0.226283 5.15259 0 5.56769 0 6.00007C0 6.43245 0.226283 6.84755 0.630169 7.15607L6.77659 11.8401C6.84245 11.8909 6.92121 11.9313 7.00824 11.9588C7.09526 11.9864 7.18877 12.0006 7.28324 12.0006C7.37771 12.0006 7.47122 11.9864 7.55824 11.9588C7.64526 11.9313 7.72403 11.8909 7.78989 11.8401C7.92465 11.7372 8.00016 11.5988 8.00016 11.4546C8.00016 11.3104 7.92465 11.1719 7.78989 11.0691Z" fill="black"/>
<path d="M11.7896 11.0691L5.64188 6.38407C5.50705 6.28185 5.43143 6.14386 5.43143 6.00007C5.43143 5.85628 5.50705 5.71829 5.64188 5.61607L11.7883 0.931069C11.9231 0.828214 11.9986 0.689776 11.9986 0.545569C11.9986 0.401363 11.9231 0.262925 11.7883 0.160069C11.7225 0.109421 11.6438 0.0691688 11.5569 0.0416851C11.47 0.0142014 11.3766 4.19617e-05 11.2823 4.19617e-05C11.188 4.19617e-05 11.0947 0.0142014 11.0078 0.0416851C10.9209 0.0691688 10.8422 0.109421 10.7763 0.160069L4.62992 4.84407C4.22604 5.15259 3.99976 5.56769 3.99976 6.00007C3.99976 6.43245 4.22604 6.84755 4.62992 7.15607L10.7763 11.8401C10.8422 11.8909 10.921 11.9313 11.008 11.9588C11.095 11.9864 11.1885 12.0006 11.283 12.0006C11.3775 12.0006 11.471 11.9864 11.558 11.9588C11.645 11.9313 11.7238 11.8909 11.7896 11.8401C11.9244 11.7372 11.9999 11.5988 11.9999 11.4546C11.9999 11.3104 11.9244 11.1719 11.7896 11.0691Z" fill="black"/>
</svg>
