<svg width="20" height="20" viewBox="0 0 25 25" fill="none" xmlns="http://www.w3.org/2000/svg">
<path d="M4.16671 20.8333C3.59379 20.8333 3.10317 20.6292 2.69483 20.2208C2.2865 19.8125 2.08268 19.3222 2.08338 18.75V6.25001C2.08338 5.67709 2.28754 5.18647 2.69588 4.77813C3.10421 4.3698 3.59449 4.16598 4.16671 4.16667H20.8334C21.4063 4.16667 21.8969 4.37084 22.3053 4.77917C22.7136 5.18751 22.9174 5.67778 22.9167 6.25001V18.75C22.9167 19.3229 22.7125 19.8135 22.3042 20.2219C21.8959 20.6302 21.4056 20.834 20.8334 20.8333H4.16671ZM12.5 13.5417L4.16671 8.33334V18.75H20.8334V8.33334L12.5 13.5417ZM12.5 11.4583L20.8334 6.25001H4.16671L12.5 11.4583ZM4.16671 8.33334V6.25001V18.75V8.33334Z" fill="black"/>
</svg>
