<svg width="18" height="18ㅇ" viewBox="0 0 30 30" fill="none" xmlns="http://www.w3.org/2000/svg">
<path fill-rule="evenodd" clip-rule="evenodd" d="M10.53 9.24C10.0179 10.0119 9.28743 10.6137 8.43188 10.9688C8.15438 11.0813 7.57313 11.2275 7.57313 11.2275V20.6175C8.78311 20.8669 9.84649 21.5821 10.5338 22.6088C11.0456 23.3813 11.3194 24.2869 11.3194 25.2113C11.3344 25.8544 11.2125 26.4938 10.9631 27.0863C10.6055 27.9543 9.99405 28.6941 9.20879 29.2087C8.42354 29.7233 7.50115 29.9886 6.5625 29.97C5.63614 29.973 4.72997 29.6994 3.96 29.1844C3.18757 28.6715 2.58555 27.94 2.23087 27.0834C1.87618 26.2267 1.78492 25.2838 1.96875 24.375C2.14688 23.4638 2.58938 22.6275 3.24375 21.9694C3.89813 21.3263 4.725 20.8838 5.62313 20.6944V11.1544C4.7258 10.9618 3.90105 10.5199 3.24375 9.87938C2.59038 9.22111 2.14671 8.384 1.96875 7.47375C1.78454 6.56535 1.87523 5.62266 2.22924 4.76604C2.58324 3.90942 3.1845 3.17772 3.95625 2.66438C4.72726 2.14811 5.63461 1.87329 6.5625 1.875C7.18993 1.86486 7.81303 1.98059 8.39497 2.21536C8.97691 2.45013 9.50589 2.79918 9.95063 3.24188C10.395 3.68658 10.745 4.21634 10.9799 4.79947C11.2148 5.38259 11.3296 6.0071 11.3175 6.63563C11.3212 7.56188 11.0475 8.46938 10.53 9.24ZM9.1125 23.9794C8.87214 23.5305 8.51441 23.1553 8.0775 22.8938C7.64256 22.63 7.14236 22.4936 6.63375 22.5C6.21804 22.4988 5.80726 22.59 5.43116 22.7672C5.05507 22.9443 4.72308 23.2029 4.45925 23.5241C4.19542 23.8454 4.00634 24.2213 3.90573 24.6247C3.80511 25.028 3.79547 25.4487 3.8775 25.8563C3.98442 26.4031 4.25208 26.9056 4.64623 27.2994C5.04038 27.6932 5.54309 27.9604 6.09 28.0669C6.63 28.1756 7.18875 28.1231 7.7025 27.9169C8.22 27.6975 8.6625 27.3319 8.9775 26.8669C9.25875 26.4431 9.41813 25.9481 9.44438 25.4419C9.46722 24.9334 9.35257 24.4282 9.1125 23.9794ZM5.0775 8.88938C5.54063 9.19125 6.0825 9.35813 6.63375 9.35813C7.14188 9.35813 7.6425 9.2175 8.0775 8.9625C8.51274 8.6992 8.86923 8.32379 9.10969 7.87552C9.35015 7.42726 9.46574 6.92262 9.44438 6.41438C9.41882 5.90592 9.25691 5.41371 8.97563 4.98938C8.66104 4.52351 8.21818 4.15879 7.70063 3.93938C7.18972 3.73127 6.62865 3.67908 6.08813 3.78938C5.54141 3.89653 5.03906 4.16427 4.64528 4.55838C4.25151 4.95249 3.98419 5.45507 3.8775 6.00188C3.76875 6.54188 3.82125 7.10063 4.0275 7.61438C4.24688 8.13188 4.6125 8.57438 5.0775 8.88938ZM24.4444 20.6944C25.3444 20.8763 26.1731 21.3225 26.8237 21.9694C27.6975 22.8506 28.1906 24.045 28.1831 25.2806C28.1869 26.205 27.9131 27.1125 27.3956 27.8831C26.8816 28.6556 26.1499 29.2582 25.2931 29.6143C24.4363 29.9705 23.493 30.0642 22.5828 29.8837C21.6727 29.7031 20.8366 29.2564 20.1807 28.6002C19.5247 27.9439 19.0783 27.1077 18.8981 26.1975C18.7186 25.2879 18.8128 24.3454 19.1689 23.4893C19.525 22.6333 20.127 21.902 20.8988 21.3881C21.3994 21.045 21.9694 20.8106 22.5656 20.6944V10.2919C22.5651 9.54628 22.2686 8.83139 21.7412 8.30435C21.2138 7.77731 20.4987 7.48125 19.7531 7.48125H16.2881L18.6675 9.8625L17.3363 11.1919L13.3444 7.2V5.8875L17.3381 1.89375L18.6694 3.22688L16.29 5.60813H19.7588C20.687 5.60292 21.5956 5.8752 22.368 6.39002C23.1404 6.90485 23.7414 7.63873 24.0938 8.4975C24.3281 9.06375 24.4481 9.675 24.4444 10.2919V20.6944ZM25.4887 27.2738C25.9505 26.8165 26.2388 26.2128 26.3041 25.5662C26.3695 24.9196 26.2078 24.2704 25.8469 23.73C25.5319 23.2649 25.0891 22.9009 24.5719 22.6819C24.061 22.4738 23.4999 22.4216 22.9594 22.5319C22.4126 22.6388 21.9101 22.9065 21.5163 23.3006C21.1224 23.6948 20.8552 24.1975 20.7488 24.7444C20.6384 25.2849 20.6906 25.846 20.8988 26.3569C21.0734 26.7865 21.352 27.1662 21.7093 27.4618C22.0667 27.7574 22.4918 27.9598 22.9466 28.0508C23.4014 28.1418 23.8717 28.1187 24.3153 27.9834C24.759 27.8481 25.1621 27.6049 25.4887 27.2756V27.2738Z" fill="#817E7E"/>
</svg>
