<svg width="250" height="161" viewBox="0 0 150 61" fill="none" xmlns="http://www.w3.org/2000/svg">
<path d="M1.54474 49.9517V46.8089L10.8026 32.1818H13.4233V36.6562H11.8253L5.59304 46.532V46.7024H18.5156V49.9517H1.54474ZM11.9531 54V48.9929L11.9957 47.5866V32.1818H15.7244V54H11.9531ZM29.984 54.4155C28.2298 54.4155 26.7241 53.9716 25.467 53.0838C24.217 52.1889 23.2546 50.8999 22.5799 49.2166C21.9123 47.5263 21.5785 45.4915 21.5785 43.1122C21.5856 40.733 21.9229 38.7088 22.5906 37.0398C23.2653 35.3636 24.2276 34.0852 25.4776 33.2045C26.7347 32.3239 28.2369 31.8835 29.984 31.8835C31.7312 31.8835 33.2333 32.3239 34.4904 33.2045C35.7475 34.0852 36.7099 35.3636 37.3775 37.0398C38.0522 38.7159 38.3896 40.7401 38.3896 43.1122C38.3896 45.4986 38.0522 47.5369 37.3775 49.2273C36.7099 50.9105 35.7475 52.196 34.4904 53.0838C33.2404 53.9716 31.7383 54.4155 29.984 54.4155ZM29.984 51.081C31.3477 51.081 32.4237 50.4098 33.212 49.0675C34.0075 47.718 34.4052 45.733 34.4052 43.1122C34.4052 41.3793 34.2241 39.9233 33.8619 38.7443C33.4996 37.5653 32.9883 36.6776 32.3278 36.081C31.6673 35.4773 30.886 35.1754 29.984 35.1754C28.6275 35.1754 27.555 35.8501 26.7667 37.1996C25.9783 38.5419 25.5806 40.5128 25.5735 43.1122C25.5664 44.8523 25.7404 46.3153 26.0955 47.5014C26.4577 48.6875 26.9691 49.5824 27.6296 50.1861C28.2901 50.7827 29.0749 51.081 29.984 51.081ZM41.535 49.9517V46.8089L50.7928 32.1818H53.4135V36.6562H51.8155L45.5833 46.532V46.7024H58.5059V49.9517H41.535ZM51.9434 54V48.9929L51.986 47.5866V32.1818H55.7147V54H51.9434ZM67.9652 54V35.8182H79.7905V38.5792H71.2589V43.5153H79.1779V46.2763H71.2589V51.239H79.8615V54H67.9652ZM83.0087 54V40.3636H86.1248V42.6364H86.2669C86.5154 41.8492 86.9416 41.2425 87.5453 40.8164C88.1549 40.3844 88.8503 40.1683 89.6316 40.1683C89.8091 40.1683 90.0074 40.1772 90.2264 40.195C90.4513 40.2068 90.6377 40.2275 90.7857 40.2571V43.2134C90.6496 43.1661 90.4335 43.1246 90.1376 43.0891C89.8476 43.0477 89.5665 43.027 89.2942 43.027C88.7083 43.027 88.1815 43.1542 87.714 43.4087C87.2523 43.6573 86.8883 44.0036 86.622 44.4474C86.3556 44.8913 86.2225 45.4033 86.2225 45.9833V54H83.0087ZM92.9208 54V40.3636H96.0369V42.6364H96.179C96.4276 41.8492 96.8537 41.2425 97.4574 40.8164C98.067 40.3844 98.7624 40.1683 99.5437 40.1683C99.7212 40.1683 99.9195 40.1772 100.138 40.195C100.363 40.2068 100.55 40.2275 100.698 40.2571V43.2134C100.562 43.1661 100.346 43.1246 100.05 43.0891C99.7597 43.0477 99.4786 43.027 99.2063 43.027C98.6204 43.027 98.0936 43.1542 97.6261 43.4087C97.1644 43.6573 96.8004 44.0036 96.5341 44.4474C96.2678 44.8913 96.1346 45.4033 96.1346 45.9833V54H92.9208ZM108.22 54.2663C106.888 54.2663 105.734 53.9734 104.757 53.3874C103.781 52.8015 103.023 51.9818 102.484 50.9283C101.952 49.8748 101.685 48.6437 101.685 47.2351C101.685 45.8265 101.952 44.5924 102.484 43.533C103.023 42.4736 103.781 41.6509 104.757 41.065C105.734 40.479 106.888 40.1861 108.22 40.1861C109.551 40.1861 110.705 40.479 111.682 41.065C112.658 41.6509 113.413 42.4736 113.946 43.533C114.484 44.5924 114.754 45.8265 114.754 47.2351C114.754 48.6437 114.484 49.8748 113.946 50.9283C113.413 51.9818 112.658 52.8015 111.682 53.3874C110.705 53.9734 109.551 54.2663 108.22 54.2663ZM108.237 51.6918C108.959 51.6918 109.563 51.4935 110.048 51.0969C110.534 50.6945 110.895 50.1559 111.131 49.4812C111.374 48.8065 111.495 48.0548 111.495 47.2262C111.495 46.3917 111.374 45.6371 111.131 44.9624C110.895 44.2817 110.534 43.7402 110.048 43.3377C109.563 42.9353 108.959 42.734 108.237 42.734C107.497 42.734 106.882 42.9353 106.391 43.3377C105.905 43.7402 105.541 44.2817 105.299 44.9624C105.062 45.6371 104.944 46.3917 104.944 47.2262C104.944 48.0548 105.062 48.8065 105.299 49.4812C105.541 50.1559 105.905 50.6945 106.391 51.0969C106.882 51.4935 107.497 51.6918 108.237 51.6918ZM117.481 54V40.3636H120.597V42.6364H120.74C120.988 41.8492 121.414 41.2425 122.018 40.8164C122.628 40.3844 123.323 40.1683 124.104 40.1683C124.282 40.1683 124.48 40.1772 124.699 40.195C124.924 40.2068 125.11 40.2275 125.258 40.2571V43.2134C125.122 43.1661 124.906 43.1246 124.61 43.0891C124.32 43.0477 124.039 43.027 123.767 43.027C123.181 43.027 122.654 43.1542 122.187 43.4087C121.725 43.6573 121.361 44.0036 121.095 44.4474C120.828 44.8913 120.695 45.4033 120.695 45.9833V54H117.481ZM135.574 54.1953C135.036 54.1953 134.574 54.0059 134.189 53.6271C133.805 53.2483 133.615 52.7867 133.621 52.2422C133.615 51.7095 133.805 51.2538 134.189 50.875C134.574 50.4962 135.036 50.3068 135.574 50.3068C136.095 50.3068 136.548 50.4962 136.933 50.875C137.323 51.2538 137.522 51.7095 137.528 52.2422C137.522 52.6032 137.427 52.9317 137.243 53.2276C137.066 53.5236 136.829 53.7603 136.533 53.9379C136.243 54.1095 135.924 54.1953 135.574 54.1953ZM135.574 44.4652C135.036 44.4652 134.574 44.2758 134.189 43.897C133.805 43.5123 133.615 43.0507 133.621 42.5121C133.615 41.9794 133.805 41.5237 134.189 41.1449C134.574 40.7602 135.036 40.5678 135.574 40.5678C136.095 40.5678 136.548 40.7602 136.933 41.1449C137.323 41.5237 137.522 41.9794 137.528 42.5121C137.522 42.8672 137.427 43.1927 137.243 43.4886C137.066 43.7846 136.829 44.0213 136.533 44.1989C136.243 44.3764 135.924 44.4652 135.574 44.4652ZM141.645 46.587C141.645 44.3675 141.938 42.3286 142.524 40.4702C143.115 38.6058 143.994 36.8835 145.16 35.3033H148.188C147.738 35.8892 147.318 36.6083 146.927 37.4606C146.536 38.3069 146.196 39.2361 145.906 40.2482C145.622 41.2544 145.397 42.299 145.231 43.3821C145.071 44.4652 144.992 45.5335 144.992 46.587C144.992 47.9897 145.131 49.4102 145.409 50.8484C145.693 52.2866 146.075 53.6183 146.554 54.8434C147.039 56.0745 147.584 57.0806 148.188 57.8619H145.16C143.994 56.2816 143.115 54.5623 142.524 52.7038C141.938 50.8395 141.645 48.8005 141.645 46.587Z" fill="black"/>
<path d="M94.1923 0.707825H140.308C141.419 0.707825 142.486 0.962437 143.272 1.41565C144.058 1.86886 144.5 2.48355 144.5 3.12449V27.2912C144.505 27.752 144.279 28.2038 143.849 28.5924C143.419 28.9809 142.803 29.2895 142.076 29.4813C141.522 29.63 140.919 29.7073 140.308 29.7078C139.323 29.7065 138.372 29.5042 137.622 29.1369L137.598 29.1263L129.041 24.8745H94.1923C93.0804 24.8745 92.0141 24.6199 91.2279 24.1667C90.4417 23.7135 90 23.0988 90 22.4578V3.12449C90 2.48355 90.4417 1.86886 91.2279 1.41565C92.0141 0.962437 93.0804 0.707825 94.1923 0.707825ZM92.5231 22.4578H129.827C130.33 22.458 130.817 22.5625 131.197 22.7524L141.472 27L141.472 3.12449H92.5231L92.5231 22.4578Z" fill="black"/>
<path d="M99.0348 8.72727V16H97.7173V8.72727H99.0348ZM101.495 8.72727V9.4517C101.495 9.66004 101.455 9.87666 101.374 10.1016C101.296 10.3241 101.188 10.5372 101.051 10.7408C100.914 10.942 100.757 11.1148 100.582 11.2592L99.9856 10.8722C100.116 10.6757 100.229 10.4638 100.327 10.2365C100.424 10.0069 100.472 9.74763 100.472 9.45881V8.72727H101.495ZM102.328 16V10.5455H103.557V11.4723H103.621C103.735 11.1598 103.923 10.916 104.186 10.7408C104.449 10.5632 104.762 10.4744 105.127 10.4744C105.496 10.4744 105.807 10.5644 106.061 10.7443C106.316 10.9219 106.496 11.1645 106.6 11.4723H106.657C106.778 11.1693 106.982 10.9278 107.268 10.7479C107.557 10.5656 107.899 10.4744 108.294 10.4744C108.796 10.4744 109.206 10.633 109.523 10.9503C109.84 11.2675 109.999 11.7304 109.999 12.3388V16H108.71V12.5376C108.71 12.1991 108.62 11.9517 108.44 11.7955C108.26 11.6368 108.04 11.5575 107.779 11.5575C107.469 11.5575 107.227 11.6546 107.051 11.8487C106.879 12.0405 106.792 12.2902 106.792 12.598V16H105.532V12.4844C105.532 12.2027 105.446 11.9777 105.276 11.8097C105.108 11.6416 104.888 11.5575 104.615 11.5575C104.431 11.5575 104.263 11.6049 104.111 11.6996C103.96 11.7919 103.839 11.9233 103.749 12.0938C103.659 12.2618 103.614 12.4583 103.614 12.6832V16H102.328ZM118.095 11.9872L116.923 12.1151C116.89 11.9967 116.832 11.8854 116.749 11.7812C116.668 11.6771 116.559 11.593 116.422 11.5291C116.285 11.4652 116.117 11.4332 115.918 11.4332C115.65 11.4332 115.425 11.4912 115.243 11.6072C115.063 11.7232 114.974 11.8736 114.977 12.0582C114.974 12.2169 115.032 12.3459 115.151 12.4453C115.271 12.5447 115.47 12.6264 115.747 12.6903L116.678 12.8892C117.194 13.0005 117.577 13.1768 117.828 13.4183C118.082 13.6598 118.209 13.9759 118.212 14.3665C118.209 14.7098 118.109 15.0128 117.91 15.2756C117.713 15.536 117.44 15.7396 117.09 15.8864C116.739 16.0331 116.337 16.1065 115.882 16.1065C115.215 16.1065 114.677 15.9669 114.27 15.6875C113.863 15.4058 113.62 15.014 113.542 14.5121L114.796 14.3913C114.852 14.6375 114.973 14.8234 115.158 14.9489C115.343 15.0743 115.583 15.1371 115.879 15.1371C116.184 15.1371 116.429 15.0743 116.614 14.9489C116.801 14.8234 116.894 14.6683 116.894 14.4837C116.894 14.3274 116.834 14.1984 116.713 14.0966C116.595 13.9948 116.41 13.9167 116.159 13.8622L115.229 13.6669C114.706 13.558 114.319 13.3745 114.068 13.1165C113.817 12.8561 113.692 12.527 113.695 12.1293C113.692 11.7931 113.784 11.5019 113.968 11.2557C114.155 11.0071 114.414 10.8153 114.746 10.6804C115.08 10.5431 115.464 10.4744 115.9 10.4744C116.539 10.4744 117.042 10.6106 117.409 10.8828C117.779 11.1551 118.007 11.5232 118.095 11.9872ZM121.651 16.1065C121.118 16.1065 120.657 15.9893 120.266 15.755C119.876 15.5206 119.573 15.1927 119.357 14.7713C119.144 14.3499 119.037 13.8575 119.037 13.294C119.037 12.7306 119.144 12.237 119.357 11.8132C119.573 11.3894 119.876 11.0604 120.266 10.826C120.657 10.5916 121.118 10.4744 121.651 10.4744C122.184 10.4744 122.645 10.5916 123.036 10.826C123.427 11.0604 123.729 11.3894 123.942 11.8132C124.157 12.237 124.265 12.7306 124.265 13.294C124.265 13.8575 124.157 14.3499 123.942 14.7713C123.729 15.1927 123.427 15.5206 123.036 15.755C122.645 15.9893 122.184 16.1065 121.651 16.1065ZM121.658 15.0767C121.947 15.0767 122.189 14.9974 122.383 14.8388C122.577 14.6778 122.721 14.4624 122.816 14.1925C122.913 13.9226 122.961 13.6219 122.961 13.2905C122.961 12.9567 122.913 12.6548 122.816 12.3849C122.721 12.1127 122.577 11.8961 122.383 11.7351C122.189 11.5741 121.947 11.4936 121.658 11.4936C121.362 11.4936 121.116 11.5741 120.92 11.7351C120.725 11.8961 120.58 12.1127 120.483 12.3849C120.388 12.6548 120.341 12.9567 120.341 13.2905C120.341 13.6219 120.388 13.9226 120.483 14.1925C120.58 14.4624 120.725 14.6778 120.92 14.8388C121.116 14.9974 121.362 15.0767 121.658 15.0767ZM125.356 16V10.5455H126.602V11.4545H126.659C126.759 11.1397 126.929 10.897 127.17 10.7266C127.414 10.5537 127.692 10.4673 128.005 10.4673C128.076 10.4673 128.155 10.4709 128.243 10.478C128.333 10.4827 128.407 10.491 128.467 10.5028V11.6854C128.412 11.6664 128.326 11.6499 128.207 11.6357C128.091 11.6191 127.979 11.6108 127.87 11.6108C127.636 11.6108 127.425 11.6617 127.238 11.7635C127.053 11.8629 126.908 12.0014 126.801 12.179C126.695 12.3565 126.641 12.5613 126.641 12.7933V16H125.356ZM129.321 16V10.5455H130.567V11.4545H130.624C130.723 11.1397 130.894 10.897 131.135 10.7266C131.379 10.5537 131.657 10.4673 131.97 10.4673C132.041 10.4673 132.12 10.4709 132.208 10.478C132.298 10.4827 132.372 10.491 132.431 10.5028V11.6854C132.377 11.6664 132.291 11.6499 132.172 11.6357C132.056 11.6191 131.944 11.6108 131.835 11.6108C131.6 11.6108 131.39 11.6617 131.203 11.7635C131.018 11.8629 130.873 12.0014 130.766 12.179C130.659 12.3565 130.606 12.5613 130.606 12.7933V16H129.321ZM134.251 18.0455C134.075 18.0455 133.913 18.0313 133.764 18.0028C133.617 17.9768 133.5 17.946 133.412 17.9105L133.711 16.9091C133.898 16.9635 134.065 16.9896 134.211 16.9872C134.358 16.9848 134.487 16.9387 134.599 16.8487C134.712 16.7611 134.808 16.6143 134.886 16.4084L134.996 16.1136L133.018 10.5455H134.382L135.639 14.6648H135.696L136.956 10.5455H138.324L136.14 16.6605C136.038 16.9493 135.903 17.1967 135.735 17.4027C135.567 17.611 135.361 17.7696 135.117 17.8786C134.876 17.9898 134.587 18.0455 134.251 18.0455Z" fill="black"/>
</svg>
