<svg width="25" height="22" viewBox="0 0 25 30" fill="none" xmlns="http://www.w3.org/2000/svg">
<path d="M9.75 26.875H15.25C15.25 28.3875 14.0125 29.625 12.5 29.625C10.9875 29.625 9.75 28.3875 9.75 26.875ZM24.875 24.125V25.5H0.125V24.125L2.875 21.375V13.125C2.875 8.8625 5.625 5.15 9.75 3.9125V3.5C9.75 1.9875 10.9875 0.75 12.5 0.75C14.0125 0.75 15.25 1.9875 15.25 3.5V3.9125C19.375 5.15 22.125 8.8625 22.125 13.125V21.375L24.875 24.125ZM19.375 13.125C19.375 9.275 16.35 6.25 12.5 6.25C8.65 6.25 5.625 9.275 5.625 13.125V22.75H19.375V13.125Z" fill="black"/>
</svg>
