<svg width="41" height="25" viewBox="0 0 41 37" fill="none" xmlns="http://www.w3.org/2000/svg">
<path d="M8.54166 27.75V33.5559L11.1298 32.1545L19.2649 27.75H27.3333C29.2176 27.75 30.75 26.3671 30.75 24.6667V12.3333C30.75 10.6329 29.2176 9.25 27.3333 9.25H6.83333C4.94904 9.25 3.41666 10.6329 3.41666 12.3333V24.6667C3.41666 26.3671 4.94904 27.75 6.83333 27.75H8.54166ZM6.83333 12.3333H27.3333V24.6667H18.3185L11.9583 28.1108V24.6667H6.83333V12.3333Z" fill="black"/>
<path d="M34.1667 3.08331H13.6667C11.7824 3.08331 10.25 4.46619 10.25 6.16665H30.75C32.6343 6.16665 34.1667 7.54952 34.1667 9.24998V21.5833C36.051 21.5833 37.5833 20.2004 37.5833 18.5V6.16665C37.5833 4.46619 36.051 3.08331 34.1667 3.08331Z" fill="black"/>
</svg>
