<svg width="20" height="30" viewBox="0 0 30 30" fill="none" xmlns="http://www.w3.org/2000/svg">
<path d="M1.01249 7.25625L0.937488 5.625C0.937488 4.63044 1.33258 3.67661 2.03584 2.97335C2.7391 2.27009 3.69293 1.875 4.68749 1.875H11.5725C12.567 1.87521 13.5206 2.27044 14.2237 2.97375L15.7762 4.52625C16.4793 5.22956 17.433 5.62479 18.4275 5.625H25.8937C26.4148 5.62495 26.9302 5.7335 27.407 5.94373C27.8838 6.15397 28.3116 6.46127 28.663 6.84604C29.0145 7.23081 29.2818 7.68459 29.4481 8.17846C29.6144 8.67232 29.6759 9.19541 29.6287 9.71438L28.4344 22.8394C28.3497 23.7711 27.9198 24.6375 27.2291 25.2685C26.5384 25.8996 25.6368 26.2496 24.7012 26.25H5.29874C4.36318 26.2496 3.46156 25.8996 2.77086 25.2685C2.08016 24.6375 1.65028 23.7711 1.56561 22.8394L0.371238 9.71438C0.292932 8.84597 0.519683 7.97743 1.01249 7.25813V7.25625ZM4.10624 7.5C3.84577 7.49998 3.58816 7.55424 3.34983 7.6593C3.11149 7.76436 2.89766 7.91792 2.72196 8.1102C2.54627 8.30248 2.41256 8.52926 2.32936 8.77608C2.24616 9.0229 2.2153 9.28434 2.23874 9.54375L3.43311 22.6688C3.47521 23.1346 3.68992 23.5679 4.0351 23.8836C4.38027 24.1993 4.83097 24.3746 5.29874 24.375H24.7012C25.169 24.3746 25.6197 24.1993 25.9649 23.8836C26.3101 23.5679 26.5248 23.1346 26.5669 22.6688L27.7612 9.54375C27.7847 9.28434 27.7538 9.0229 27.6706 8.77608C27.5874 8.52926 27.4537 8.30248 27.278 8.1102C27.1023 7.91792 26.8885 7.76436 26.6501 7.6593C26.4118 7.55424 26.1542 7.49998 25.8937 7.5H4.10624ZM12.9 4.29937C12.7257 4.12503 12.5187 3.98677 12.2909 3.8925C12.0632 3.79823 11.819 3.74981 11.5725 3.75H4.68749C4.19632 3.74991 3.72472 3.94256 3.3741 4.28652C3.02348 4.63048 2.82182 5.09829 2.81249 5.58937L2.82374 5.85C3.22749 5.70125 3.65499 5.62625 4.10624 5.625H14.2237L12.9 4.29937Z" fill="#817E7E"/>
</svg>
