<svg width="25" height="25" viewBox="0 0 25 25" fill="none" xmlns="http://www.w3.org/2000/svg">
<path d="M12.2812 9.25L15.5833 12.5417V12.375C15.5833 11.5462 15.2541 10.7513 14.668 10.1653C14.082 9.57924 13.2871 9.25 12.4583 9.25H12.2812ZM7.80208 10.0833L9.41667 11.6979C9.36458 11.9167 9.33333 12.1354 9.33333 12.375C9.33333 13.2038 9.66257 13.9987 10.2486 14.5847C10.8347 15.1708 11.6295 15.5 12.4583 15.5C12.6875 15.5 12.9167 15.4687 13.1354 15.4167L14.75 17.0312C14.0521 17.375 13.2812 17.5833 12.4583 17.5833C11.077 17.5833 9.75224 17.0346 8.77549 16.0578C7.79873 15.0811 7.25 13.7563 7.25 12.375C7.25 11.5521 7.45833 10.7812 7.80208 10.0833ZM2.04167 4.32292L4.41667 6.69792L4.88542 7.16667C3.16667 8.52083 1.8125 10.2917 1 12.375C2.80208 16.9479 7.25 20.1875 12.4583 20.1875C14.0729 20.1875 15.6146 19.875 17.0208 19.3125L17.4687 19.75L20.5104 22.7917L21.8333 21.4687L3.36458 3M12.4583 7.16667C13.8397 7.16667 15.1644 7.7154 16.1412 8.69215C17.1179 9.6689 17.6667 10.9937 17.6667 12.375C17.6667 13.0417 17.5312 13.6875 17.2917 14.2708L20.3437 17.3229C21.9062 16.0208 23.1562 14.3125 23.9167 12.375C22.1146 7.80208 17.6667 4.5625 12.4583 4.5625C11 4.5625 9.60417 4.82292 8.29167 5.29167L10.5521 7.53125C11.1458 7.30208 11.7812 7.16667 12.4583 7.16667Z" fill="black"/>
</svg>
