<svg width="25" height="25" viewBox="0 0 25 25" fill="none" xmlns="http://www.w3.org/2000/svg">
<path d="M12.4583 9.6875C11.6295 9.6875 10.8347 10.0167 10.2486 10.6028C9.66257 11.1888 9.33333 11.9837 9.33333 12.8125C9.33333 13.6413 9.66257 14.4362 10.2486 15.0222C10.8347 15.6083 11.6295 15.9375 12.4583 15.9375C13.2871 15.9375 14.082 15.6083 14.668 15.0222C15.2541 14.4362 15.5833 13.6413 15.5833 12.8125C15.5833 11.9837 15.2541 11.1888 14.668 10.6028C14.082 10.0167 13.2871 9.6875 12.4583 9.6875ZM12.4583 18.0208C11.077 18.0208 9.75224 17.4721 8.77549 16.4953C7.79873 15.5186 7.25 14.1938 7.25 12.8125C7.25 11.4312 7.79873 10.1064 8.77549 9.12965C9.75224 8.1529 11.077 7.60417 12.4583 7.60417C13.8397 7.60417 15.1644 8.1529 16.1412 9.12965C17.1179 10.1064 17.6667 11.4312 17.6667 12.8125C17.6667 14.1938 17.1179 15.5186 16.1412 16.4953C15.1644 17.4721 13.8397 18.0208 12.4583 18.0208ZM12.4583 5C7.25 5 2.80208 8.23958 1 12.8125C2.80208 17.3854 7.25 20.625 12.4583 20.625C17.6667 20.625 22.1146 17.3854 23.9167 12.8125C22.1146 8.23958 17.6667 5 12.4583 5Z" fill="black"/>
</svg>
