<svg width="25" height="25" viewBox="0 0 35 31" fill="none" xmlns="http://www.w3.org/2000/svg">
<path d="M5.125 24.6666V30.4725L7.71312 29.0712L15.8482 24.6666H23.9167C25.801 24.6666 27.3333 23.2838 27.3333 21.5833V9.24996C27.3333 7.5495 25.801 6.16663 23.9167 6.16663H3.41667C1.53237 6.16663 0 7.5495 0 9.24996V21.5833C0 23.2838 1.53237 24.6666 3.41667 24.6666H5.125ZM3.41667 9.24996H23.9167V21.5833H14.9018L8.54167 25.0274V21.5833H3.41667V9.24996Z" fill="black"/>
<path d="M30.75 0H10.25C8.36575 0 6.83337 1.38287 6.83337 3.08333H27.3334C29.2177 3.08333 30.75 4.46621 30.75 6.16667V18.5C32.6343 18.5 34.1667 17.1171 34.1667 15.4167V3.08333C34.1667 1.38287 32.6343 0 30.75 0Z" fill="black"/>
</svg>
