<svg width="18" height="18" viewBox="0 0 30 30" fill="none" xmlns="http://www.w3.org/2000/svg">
<g clip-path="url(#clip0_6_129)">
<path d="M8.90625 13.125C8.53329 13.125 8.1756 13.2732 7.91188 13.5369C7.64816 13.8006 7.5 14.1583 7.5 14.5312C7.5 14.9042 7.64816 15.2619 7.91188 15.5256C8.1756 15.7893 8.53329 15.9375 8.90625 15.9375H17.3438C17.7167 15.9375 18.0744 15.7893 18.3381 15.5256C18.6018 15.2619 18.75 14.9042 18.75 14.5312C18.75 14.1583 18.6018 13.8006 18.3381 13.5369C18.0744 13.2732 17.7167 13.125 17.3438 13.125H8.90625ZM9.375 8.90625C9.375 8.53329 9.52316 8.1756 9.78688 7.91188C10.0506 7.64816 10.4083 7.5 10.7812 7.5H21.0938C21.4667 7.5 21.8244 7.64816 22.0881 7.91188C22.3518 8.1756 22.5 8.53329 22.5 8.90625C22.5 9.27921 22.3518 9.6369 22.0881 9.90062C21.8244 10.1643 21.4667 10.3125 21.0938 10.3125H10.7812C10.4083 10.3125 10.0506 10.1643 9.78688 9.90062C9.52316 9.6369 9.375 9.27921 9.375 8.90625ZM12.6562 18.75C12.2833 18.75 11.9256 18.8982 11.6619 19.1619C11.3982 19.4256 11.25 19.7833 11.25 20.1562C11.25 20.5292 11.3982 20.8869 11.6619 21.1506C11.9256 21.4143 12.2833 21.5625 12.6562 21.5625H21.0938C21.4667 21.5625 21.8244 21.4143 22.0881 21.1506C22.3518 20.8869 22.5 20.5292 22.5 20.1562C22.5 19.7833 22.3518 19.4256 22.0881 19.1619C21.8244 18.8982 21.4667 18.75 21.0938 18.75H12.6562Z" fill="black"/>
<path d="M0 3.28125C0 1.47 1.47 0 3.28125 0H26.7188C28.53 0 30 1.47 30 3.28125V26.7188C30 27.589 29.6543 28.4236 29.0389 29.0389C28.4236 29.6543 27.589 30 26.7188 30H3.28125C2.41101 30 1.57641 29.6543 0.961056 29.0389C0.345702 28.4236 0 27.589 0 26.7188L0 3.28125ZM3.28125 2.8125C3.15693 2.8125 3.0377 2.86189 2.94979 2.94979C2.86189 3.0377 2.8125 3.15693 2.8125 3.28125V26.7188C2.8125 26.9775 3.0225 27.1875 3.28125 27.1875H26.7188C26.8431 27.1875 26.9623 27.1381 27.0502 27.0502C27.1381 26.9623 27.1875 26.8431 27.1875 26.7188V3.28125C27.1875 3.15693 27.1381 3.0377 27.0502 2.94979C26.9623 2.86189 26.8431 2.8125 26.7188 2.8125H3.28125Z" fill="black"/>
</g>
<defs>
<clipPath id="clip0_6_129">
<rect width="30" height="30" fill="white"/>
</clipPath>
</defs>
</svg>
