<svg width="12" height="12" viewBox="0 0 12 12" fill="none" xmlns="http://www.w3.org/2000/svg">
<path d="M4.21011 0.931541L10.3579 5.61654C10.4927 5.71876 10.5683 5.85675 10.5683 6.00054C10.5683 6.14433 10.4927 6.28232 10.3579 6.38454L4.21145 11.0695C4.07669 11.1724 4.00117 11.3108 4.00117 11.455C4.00117 11.5992 4.07669 11.7377 4.21145 11.8405C4.27728 11.8912 4.35597 11.9314 4.44287 11.9589C4.52976 11.9864 4.62312 12.0006 4.71743 12.0006C4.81174 12.0006 4.90509 11.9864 4.99199 11.9589C5.07889 11.9314 5.15757 11.8912 5.22341 11.8405L11.3698 7.15654C11.7737 6.84802 12 6.43292 12 6.00054C12 5.56816 11.7737 5.15306 11.3698 4.84454L5.22341 0.160541C5.15755 0.109739 5.07879 0.0693569 4.99176 0.0417821C4.90474 0.0142074 4.81123 0 4.71676 0C4.62229 0 4.52878 0.0142074 4.44176 0.0417821C4.35474 0.0693569 4.27597 0.109739 4.21011 0.160541C4.07535 0.263396 3.99984 0.401834 3.99984 0.546041C3.99984 0.690248 4.07535 0.828686 4.21011 0.931541Z" fill="black"/>
<path d="M0.210359 0.931541L6.35812 5.61654C6.49295 5.71876 6.56857 5.85675 6.56857 6.00054C6.56857 6.14433 6.49295 6.28232 6.35812 6.38454L0.211693 11.0695C0.0769305 11.1724 0.00141848 11.3108 0.00141848 11.455C0.00141848 11.5992 0.0769305 11.7377 0.211693 11.8405C0.277526 11.8912 0.356211 11.9314 0.44311 11.9589C0.530009 11.9864 0.623364 12.0006 0.717673 12.0006C0.811982 12.0006 0.905336 11.9864 0.992235 11.9589C1.07913 11.9314 1.15782 11.8912 1.22365 11.8405L7.37008 7.15654C7.77396 6.84802 8.00024 6.43292 8.00024 6.00054C8.00024 5.56816 7.77396 5.15306 7.37008 4.84454L1.22365 0.160541C1.1578 0.109739 1.07903 0.0693569 0.992009 0.0417821C0.904987 0.0142074 0.811475 0 0.717006 0C0.622536 0 0.529026 0.0142074 0.442004 0.0417821C0.354981 0.0693569 0.276213 0.109739 0.210359 0.160541C0.0755967 0.263396 8.46575e-05 0.401834 8.46575e-05 0.546041C8.46575e-05 0.690248 0.0755967 0.828686 0.210359 0.931541Z" fill="black"/>
</svg>
