<svg width="120" height="120" viewBox="0 0 167 180" fill="none" xmlns="http://www.w3.org/2000/svg">
<path d="M86.7529 109.058C84.6445 111.64 82.2785 113.736 79.6551 115.346C77.0803 116.876 74.3536 117.791 71.4747 118.091C68.5959 118.391 65.9052 117.786 63.4028 116.276C63.0153 122.484 63.1943 128.483 63.9397 134.273C63.937 135.373 63.716 136.423 63.277 137.425C62.9604 141.143 60.9723 144.072 57.3128 146.214C53.7019 148.274 50.0297 148.977 46.2963 148.32C44.567 147.993 43.0166 147.277 41.645 146.174C40.2734 145.071 39.3475 143.549 38.8673 141.608C39.5071 125.036 40.6735 111.287 42.3663 100.361C42.7602 98.0661 43.0559 96.2074 43.2535 94.785C43.5158 93.3466 43.7614 92.1184 43.9903 91.1003C44.2192 90.0822 44.4155 89.2096 44.579 88.4824C44.7912 87.6745 45.0521 86.7858 45.3618 85.8164C46.0465 83.5868 46.8129 80.9936 47.6612 78.0368C48.5581 74.9993 49.3642 72.7053 50.0795 71.1548C50.8596 69.5884 51.72 68.2081 52.6608 67.0139C53.6503 65.7391 54.7529 64.5049 55.9686 63.3114C57.249 62.102 58.8213 60.5456 60.6855 58.6423C62.5498 56.739 64.6795 55.3539 67.0747 54.4867C69.5186 53.5389 71.9611 53.1408 74.4023 53.2924C79.5594 53.5964 83.9108 56.057 87.4565 60.6741C90.5824 64.9829 92.4987 71.3422 93.2052 79.7519C94.2562 92.6089 92.1055 102.378 86.7529 109.058ZM64.3274 105.437C69.346 102.959 72.1785 98.5846 72.8249 92.3126C73.3717 87.0267 72.3671 81.4377 69.811 75.5458C68.9468 78.4379 68.236 81.395 67.6787 84.4172C67.186 87.4235 66.7185 90.1144 66.2759 92.4902C65.3248 97.8074 64.6753 102.123 64.3274 105.437ZM118.022 123.678C118.08 126.411 116.466 128.493 113.18 129.923C110.153 131.29 107.056 131.679 103.888 131.089C100.381 130.514 98.5173 128.949 98.2973 126.394C96.9807 122.736 96.9377 114.094 98.1684 100.466C99.9821 80.0329 103.124 64.9712 107.595 55.281C108.766 52.7939 109.861 51.1151 110.882 50.2445C111.952 49.2932 113.199 48.3666 114.624 47.4647C116.049 46.5628 117.547 45.6773 119.118 44.8081C122.259 43.0697 125.278 41.6706 128.175 40.6107C131.12 39.4701 133.927 39.1537 136.593 39.6617C139.244 40.1049 141.472 41.2019 143.279 42.9527C145.15 44.6875 146.6 46.9386 147.628 49.7061C148.64 52.4089 149.271 55.3775 149.521 58.612C149.756 61.7817 149.586 65.1202 149.011 68.6274C148.42 72.07 147.426 75.4064 146.027 78.6367C142.97 85.7111 138.615 90.8743 132.964 94.1262L134.343 95.5364C135.504 96.6227 136.86 97.7983 138.409 99.0634C140.022 100.312 141.612 101.602 143.177 102.932C144.807 104.245 146.307 105.591 147.678 106.969C149.049 108.347 150.137 109.692 150.942 111.003C152.762 113.918 152.521 116.416 150.22 118.496C148.404 120.319 146.802 121.058 145.412 120.715C144.814 120.52 144.193 120.227 143.547 119.837C142.917 119.512 142.109 119.3 141.123 119.201C137.577 121.245 134.425 120.995 131.666 118.449C129.956 116.812 128.578 115.264 127.53 113.807C126.483 112.349 125.597 111.126 124.872 110.138C123.114 108.031 121.276 106.288 119.355 104.909C119.075 106.833 118.818 109.265 118.585 112.208C118.333 115.91 117.984 119.773 117.537 123.798L118.022 123.678ZM123.658 62.3306C123.116 65.4176 122.755 67.5671 122.574 68.7794C122.213 71.2038 121.81 73.8788 121.366 76.8043C121.524 78.2761 121.61 79.3192 121.625 79.9337L122.648 78.2385L124.106 77.0537C125.111 76.1184 126.034 75.2719 126.877 74.514C127.72 73.7562 128.433 72.8929 129.018 71.9243C130.138 70.0676 130.832 67.3206 131.1 63.6832C130.94 63.0361 130.877 62.3649 130.911 61.6697C131.01 60.9585 131.012 60.2713 130.916 59.6082C130.823 58.1204 129.993 57.2613 128.425 57.031C127.098 57.2217 125.745 58.6897 124.363 61.435C124.087 61.9841 123.852 62.2826 123.658 62.3306Z" fill="black"/>
<path d="M32.7086 38.7751C32.388 37.155 31.6013 35.6609 30.4378 34.4624C29.2743 33.2639 27.7806 32.4091 26.1264 31.995C24.4722 31.5809 22.7238 31.6242 21.0797 32.1198C19.4356 32.6155 17.9617 33.5438 16.8255 34.7992C15.6892 36.0546 14.936 37.5868 14.6516 39.2218C14.3671 40.8569 14.5627 42.5292 15.2161 44.049C15.8696 45.5687 16.9547 46.8749 18.3482 47.8192C19.7418 48.7635 21.3879 49.3081 23.0997 49.3911L26.6259 67.2603C24.6061 68.2066 23.0026 69.8256 22.1159 71.8138C21.2293 73.802 21.1203 76.023 21.8095 78.0604C22.4987 80.0977 23.9387 81.8117 25.8597 82.8809C27.7806 83.9501 30.0505 84.3012 32.244 83.8683C34.4375 83.4355 36.4039 82.2484 37.7747 80.5296C39.1454 78.8109 39.8264 76.6784 39.69 74.5319C39.5536 72.3855 38.6091 70.3724 37.0336 68.87C35.4581 67.3677 33.3598 66.4792 31.132 66.3711L27.6058 48.502C29.4443 47.6375 30.9426 46.2136 31.866 44.4534C32.7894 42.6933 33.0857 40.6962 32.7086 38.7751ZM35.0412 74.3196C35.2103 75.1764 35.1113 76.0661 34.7567 76.8762C34.4022 77.6863 33.808 78.3804 33.0493 78.8707C32.2907 79.3611 31.4016 79.6257 30.4945 79.631C29.5875 79.6363 28.7031 79.3822 27.9534 78.9007C27.2037 78.4192 26.6222 77.7321 26.2825 76.9261C25.9428 76.1201 25.8602 75.2314 26.045 74.3726C26.2299 73.5137 26.6739 72.7232 27.321 72.101C27.9681 71.4788 28.7891 71.0528 29.6804 70.8769C30.8754 70.6411 32.1116 70.8713 33.117 71.5169C34.1223 72.1626 34.8145 73.1707 35.0412 74.3196ZM24.5513 44.8854C23.6601 45.0612 22.7388 44.9791 21.9038 44.6493C21.0689 44.3196 20.3578 43.757 19.8606 43.0327C19.3633 42.3085 19.1022 41.4551 19.1103 40.5804C19.1183 39.7058 19.3952 38.8493 19.9058 38.1191C20.4164 37.3889 21.1379 36.8179 21.979 36.4782C22.8201 36.1386 23.743 36.0456 24.6311 36.211C25.5192 36.3764 26.3325 36.7927 26.9682 37.4074C27.6039 38.0221 28.0335 38.8075 28.2025 39.6643C28.4292 40.8132 28.1719 42.0087 27.4872 42.9878C26.8025 43.967 25.7464 44.6495 24.5513 44.8854ZM67.1802 59.2576L65.197 49.2075C64.8092 47.2146 64.0144 45.3216 62.8584 43.6377C61.7025 41.9539 60.2085 40.5127 58.4626 39.3974L48.9845 33.313L57.0643 31.7185C57.6619 31.6006 58.1899 31.2593 58.5323 30.7697C58.8746 30.2802 59.0033 29.6824 58.8899 29.108C58.7766 28.5335 58.4305 28.0294 57.9278 27.7066C57.4251 27.3838 56.807 27.2687 56.2095 27.3866L42.6914 30.0542C42.0939 30.1721 41.5658 30.5134 41.2235 31.003C40.8811 31.4925 40.7524 32.0903 40.8658 32.6647L43.4303 45.6605C43.5437 46.235 43.8897 46.739 44.3924 47.0619C44.8951 47.3847 45.5132 47.4998 46.1107 47.3819C46.7083 47.264 47.2363 46.9227 47.5787 46.4331C47.921 45.9435 48.0497 45.3458 47.9363 44.7713L46.4035 37.0036L55.8794 43.0914C57.127 43.887 58.1948 44.9159 59.0207 46.1184C59.8467 47.321 60.4144 48.6732 60.691 50.0967L62.6742 60.1468C60.6544 61.093 59.0509 62.712 58.1642 64.7003C57.2776 66.6885 57.1686 68.9094 57.8578 70.9468C58.547 72.9842 59.987 74.6981 61.9079 75.7673C63.8289 76.8365 66.0988 77.1876 68.2923 76.7547C70.4858 76.3219 72.4522 75.1348 73.8229 73.4161C75.1937 71.6973 75.8747 69.5648 75.7383 67.4184C75.6019 65.2719 74.6574 63.2588 73.0819 61.7565C71.5064 60.2541 69.4081 59.3656 67.1802 59.2576ZM67.4383 72.4272C66.5471 72.6031 65.6258 72.5209 64.7908 72.1911C63.9559 71.8614 63.2448 71.2988 62.7476 70.5745C62.2503 69.8503 61.9892 68.9969 61.9972 68.1223C62.0053 67.2476 62.2821 66.3911 62.7928 65.6609C63.3034 64.9307 64.0249 64.3597 64.866 64.0201C65.7071 63.6804 66.63 63.5874 67.5181 63.7528C68.4062 63.9182 69.2195 64.3346 69.8552 64.9492C70.4909 65.5639 70.9204 66.3493 71.0895 67.2061C71.3162 68.355 71.0589 69.5505 70.3742 70.5296C69.6894 71.5088 68.6334 72.1914 67.4383 72.4272Z" fill="black"/>
</svg>
