<svg width="25" height="25" viewBox="0 0 45 43" fill="none" xmlns="http://www.w3.org/2000/svg">
<path d="M17.8125 5.375C21.0448 5.375 24.1448 6.60197 26.4304 8.78599C28.716 10.97 30 13.9322 30 17.0208C30 19.9054 28.8937 22.5571 27.075 24.5996L27.5812 25.0833H29.0625L38.4375 34.0417L35.625 36.7292L26.25 27.7708V26.3554L25.7437 25.8717C23.5323 27.6755 20.7201 28.6665 17.8125 28.6667C14.5802 28.6667 11.4802 27.4397 9.19464 25.2557C6.90904 23.0717 5.625 20.1095 5.625 17.0208C5.625 13.9322 6.90904 10.97 9.19464 8.78599C11.4802 6.60197 14.5802 5.375 17.8125 5.375ZM17.8125 8.95833C13.125 8.95833 9.375 12.5417 9.375 17.0208C9.375 21.5 13.125 25.0833 17.8125 25.0833C22.5 25.0833 26.25 21.5 26.25 17.0208C26.25 12.5417 22.5 8.95833 17.8125 8.95833Z" fill="#7D7979"/>
</svg>
