<svg width="20" height="20" viewBox="0 0 30 30" fill="none" xmlns="http://www.w3.org/2000/svg">
<path d="M25.4881 21.0711C25.438 20.7615 25.2439 20.4969 24.9532 20.3397L20.6527 17.8059L20.6173 17.7861C20.4369 17.6958 20.2378 17.6496 20.0362 17.6511C19.6759 17.6511 19.3318 17.7876 19.093 18.027L17.8237 19.2969C17.7694 19.3485 17.5924 19.4232 17.5387 19.4259C17.524 19.4247 16.0618 19.3194 13.3699 16.6272C10.6828 13.9407 10.5688 12.474 10.5679 12.474C10.5694 12.399 10.6432 12.2226 10.6957 12.168L11.778 11.0859C12.1593 10.7037 12.2737 10.0701 12.0475 9.5793L9.65705 5.0814C9.48335 4.7238 9.14585 4.503 8.77145 4.503C8.50655 4.503 8.25095 4.6128 8.05115 4.8123L5.10065 7.7562C4.81775 8.0376 4.57415 8.5296 4.52105 8.9256C4.49525 9.1149 3.97175 13.6335 10.1667 19.8294C15.4261 25.0881 19.5271 25.4967 20.6595 25.4967C20.7975 25.4985 20.9354 25.4914 21.0723 25.4754C21.4671 25.4226 21.9586 25.1796 22.2397 24.8979L25.1878 21.9501C25.4284 21.7083 25.5382 21.3888 25.4881 21.0711Z" fill="black"/>
</svg>
